<svg data-v-423bf9ae="" xmlns="http://www.w3.org/2000/svg" viewBox="0 0 485 90" class="iconLeft"><!----><!----><!----><g data-v-423bf9ae="" id="2ddc895b-445b-4b78-b7d4-ad78aed09fdc" fill="black" transform="matrix(4.979253427292024,0,0,4.979253427292024,107.51038151756384,-6.958504947235419)"><path d="M7.60 14.11L7.60 14.11Q6.78 14.11 6.40 13.52L6.40 13.52L6.40 13.52Q6.20 13.23 6.12 12.85L6.12 12.85L6.12 12.85Q6.03 12.46 5.95 11.79L5.95 11.79L5.95 11.79Q5.87 11.00 5.78 10.64L5.78 10.64L5.78 10.64Q5.66 10.07 5.45 9.77L5.45 9.77L5.45 9.77Q5.24 9.46 4.82 9.34L4.82 9.34L4.82 9.34Q4.41 9.21 3.65 9.21L3.65 9.21L3.08 9.21L3.08 13.24L3.08 13.24Q3.08 13.40 3.19 13.51L3.19 13.51L3.19 13.51Q3.30 13.62 3.44 13.62L3.44 13.62L4.07 13.62L4.07 13.62Q4.16 13.62 4.22 13.68L4.22 13.68L4.22 13.68Q4.28 13.73 4.28 13.82L4.28 13.82L4.28 13.82Q4.28 13.90 4.22 13.96L4.22 13.96L4.22 13.96Q4.16 14.01 4.07 14.01L4.07 14.01L0.71 14.01L0.71 14.01Q0.62 14.01 0.56 13.96L0.56 13.96L0.56 13.96Q0.50 13.90 0.50 13.82L0.50 13.82L0.50 13.82Q0.50 13.73 0.56 13.68L0.56 13.68L0.56 13.68Q0.62 13.62 0.71 13.62L0.71 13.62L1.32 13.62L1.32 13.62Q1.47 13.62 1.57 13.51L1.57 13.51L1.57 13.51Q1.68 13.40 1.68 13.24L1.68 13.24L1.68 5.19L1.68 5.19Q1.68 5.04 1.57 4.93L1.57 4.93L1.57 4.93Q1.47 4.82 1.32 4.82L1.32 4.82L0.71 4.82L0.71 4.82Q0.63 4.82 0.57 4.75L0.57 4.75L0.57 4.75Q0.50 4.69 0.50 4.61L0.50 4.61L0.50 4.61Q0.50 4.52 0.56 4.47L0.56 4.47L0.56 4.47Q0.62 4.41 0.71 4.41L0.71 4.41L4.07 4.41L4.07 4.41Q5.73 4.41 6.87 4.86L6.87 4.86L6.87 4.86Q8.01 5.31 8.01 6.73L8.01 6.73L8.01 6.73Q8.01 8.75 5.24 9.14L5.24 9.14L5.28 9.14L5.28 9.14Q6.09 9.27 6.57 9.84L6.57 9.84L6.57 9.84Q7.04 10.42 7.35 11.52L7.35 11.52L7.49 12.03L7.49 12.03Q7.66 12.64 7.74 12.90L7.74 12.90L7.74 12.90Q7.83 13.16 7.93 13.27L7.93 13.27L7.93 13.27Q8.04 13.38 8.22 13.38L8.22 13.38L8.22 13.38Q8.37 13.38 8.48 13.31L8.48 13.31L8.48 13.31Q8.58 13.24 8.68 13.13L8.68 13.13L8.68 13.13Q8.76 13.03 8.83 12.99L8.83 12.99L8.83 12.99Q8.89 12.94 8.99 12.94L8.99 12.94L8.99 12.94Q9.04 12.94 9.06 12.96L9.06 12.96L9.06 12.96Q9.09 12.99 9.09 13.08L9.09 13.08L9.09 13.08Q9.09 13.33 8.89 13.57L8.89 13.57L8.89 13.57Q8.69 13.80 8.35 13.96L8.35 13.96L8.35 13.96Q8.01 14.11 7.60 14.11L7.60 14.11ZM3.08 8.83L4.07 8.83L4.07 8.83Q4.75 8.83 5.24 8.72L5.24 8.72L5.24 8.72Q5.74 8.61 6.13 8.15L6.13 8.15L6.13 8.15Q6.51 7.69 6.51 6.73L6.51 6.73L6.51 6.73Q6.51 5.88 6.20 5.47L6.20 5.47L6.20 5.47Q5.88 5.05 5.38 4.94L5.38 4.94L5.38 4.94Q4.87 4.82 4.07 4.82L4.07 4.82L3.08 4.82L3.08 8.83ZM12.92 14.14L12.92 14.14Q12.22 14.14 11.57 13.82L11.57 13.82L11.57 13.82Q10.92 13.50 10.50 12.85L10.50 12.85L10.50 12.85Q10.08 12.19 10.08 11.27L10.08 11.27L10.08 11.27Q10.08 10.36 10.49 9.67L10.49 9.67L10.49 9.67Q10.89 8.99 11.52 8.62L11.52 8.62L11.52 8.62Q12.14 8.25 12.78 8.25L12.78 8.25L12.78 8.25Q13.59 8.25 14.13 8.65L14.13 8.65L14.13 8.65Q14.66 9.04 14.91 9.62L14.91 9.62L14.91 9.62Q15.16 10.19 15.16 10.68L15.16 10.68L15.16 10.68Q15.16 11.02 14.90 11.02L14.90 11.02L11.97 11.02L11.97 11.02Q11.58 11.02 11.41 11.07L11.41 11.07L11.41 11.07Q11.24 11.12 11.24 11.31L11.24 11.31L11.24 11.31Q11.24 12.42 11.65 13.13L11.65 13.13L11.65 13.13Q12.05 13.83 13.15 13.83L13.15 13.83L13.19 13.83L13.19 13.83Q13.65 13.82 14.08 13.57L14.08 13.57L14.08 13.57Q14.50 13.33 14.95 12.67L14.95 12.67L14.95 12.67Q14.99 12.61 15.08 12.61L15.08 12.61L15.08 12.61Q15.15 12.61 15.19 12.66L15.19 12.66L15.19 12.66Q15.23 12.70 15.19 12.78L15.19 12.78L15.19 12.78Q15.13 12.94 14.87 13.26L14.87 13.26L14.87 13.26Q14.60 13.58 14.11 13.86L14.11 13.86L14.11 13.86Q13.61 14.14 12.92 14.14L12.92 14.14ZM11.26 10.67L13.76 10.67L13.76 10.67Q13.97 10.67 14.01 10.63L14.01 10.63L14.01 10.63Q14.04 10.60 14.04 10.42L14.04 10.42L14.04 10.42Q14.04 9.81 13.82 9.16L13.82 9.16L13.82 9.16Q13.61 8.50 12.87 8.50L12.87 8.50L12.87 8.50Q12.28 8.50 11.82 9.04L11.82 9.04L11.82 9.04Q11.35 9.59 11.26 10.67L11.26 10.67ZM18.87 14.14L18.87 14.14Q18.20 14.14 17.59 13.81L17.59 13.81L17.59 13.81Q16.98 13.48 16.60 12.85L16.60 12.85L16.60 12.85Q16.21 12.21 16.21 11.34L16.21 11.34L16.21 11.34Q16.21 10.42 16.64 9.70L16.64 9.70L16.64 9.70Q17.07 8.99 17.73 8.60L17.73 8.60L17.73 8.60Q18.40 8.22 19.08 8.22L19.08 8.22L19.08 8.22Q19.75 8.22 20.29 8.58L20.29 8.58L20.29 8.58Q20.82 8.95 20.82 9.51L20.82 9.51L20.82 9.51Q20.82 9.87 20.61 10.02L20.61 10.02L20.61 10.02Q20.40 10.18 20.13 10.18L20.13 10.18L20.13 10.18Q19.87 10.18 19.68 10.00L19.68 10.00L19.68 10.00Q19.50 9.83 19.50 9.59L19.50 9.59L19.50 9.59Q19.50 9.37 19.69 9.18L19.69 9.18L19.69 9.18Q19.88 9.00 20.10 9.00L20.10 9.00L20.10 9.00Q20.01 8.74 19.77 8.57L19.77 8.57L19.77 8.57Q19.53 8.40 19.14 8.40L19.14 8.40L19.14 8.40Q18.40 8.40 17.89 9.03L17.89 9.03L17.89 9.03Q17.37 9.66 17.37 11.26L17.37 11.26L17.37 11.26Q17.37 12.43 17.75 13.13L17.75 13.13L17.75 13.13Q18.12 13.83 19.05 13.83L19.05 13.83L19.05 13.83Q19.67 13.83 20.05 13.53L20.05 13.53L20.05 13.53Q20.43 13.23 20.82 12.67L20.82 12.67L20.82 12.67Q20.86 12.60 20.92 12.60L20.92 12.60L20.92 12.60Q20.99 12.60 21.03 12.65L21.03 12.65L21.03 12.65Q21.07 12.70 21.03 12.78L21.03 12.78L21.03 12.78Q20.85 13.17 20.31 13.66L20.31 13.66L20.31 13.66Q19.78 14.14 18.87 14.14L18.87 14.14ZM23.27 6.41L23.27 6.41Q23.00 6.41 22.81 6.22L22.81 6.22L22.81 6.22Q22.62 6.02 22.62 5.75L22.62 5.75L22.62 5.75Q22.62 5.49 22.81 5.29L22.81 5.29L22.81 5.29Q23.00 5.08 23.27 5.08L23.27 5.08L23.27 5.08Q23.53 5.08 23.74 5.29L23.74 5.29L23.74 5.29Q23.95 5.50 23.95 5.75L23.95 5.75L23.95 5.75Q23.95 6.02 23.75 6.22L23.75 6.22L23.75 6.22Q23.55 6.41 23.27 6.41L23.27 6.41ZM22.09 14.01L22.09 14.01Q22.04 14.01 22.02 13.97L22.02 13.97L22.02 13.97Q21.99 13.93 21.99 13.85L21.99 13.85L21.99 13.85Q21.99 13.78 22.02 13.76L22.02 13.76L22.02 13.76Q22.05 13.73 22.13 13.73L22.13 13.73L22.53 13.73L22.53 13.73Q22.65 13.73 22.72 13.64L22.72 13.64L22.72 13.64Q22.78 13.54 22.78 13.41L22.78 13.41L22.78 9.00L22.78 9.00Q22.78 8.69 22.53 8.69L22.53 8.69L21.99 8.69L21.99 8.69Q21.83 8.69 21.83 8.54L21.83 8.54L21.83 8.54Q21.83 8.36 22.01 8.36L22.01 8.36L23.59 8.36L23.59 8.36Q23.80 8.36 23.80 8.58L23.80 8.58L23.80 13.51L23.80 13.51Q23.80 13.64 23.84 13.67L23.84 13.67L23.84 13.67Q23.88 13.71 23.98 13.71L23.98 13.71L24.44 13.71L24.44 13.71Q24.58 13.71 24.58 13.85L24.58 13.85L24.58 13.85Q24.58 14.01 24.44 14.01L24.44 14.01L22.09 14.01ZM25.83 16.46L25.83 16.46Q25.73 16.46 25.73 16.31L25.73 16.31L25.73 16.31Q25.73 16.18 25.87 16.18L25.87 16.18L26.26 16.18L26.26 16.18Q26.39 16.18 26.45 16.09L26.45 16.09L26.45 16.09Q26.52 15.99 26.52 15.83L26.52 15.83L26.52 9.00L26.52 9.00Q26.52 8.69 26.26 8.69L26.26 8.69L25.73 8.69L25.73 8.69Q25.56 8.69 25.56 8.54L25.56 8.54L25.56 8.54Q25.56 8.36 25.75 8.36L25.75 8.36L27.33 8.36L27.33 8.36Q27.54 8.36 27.54 8.58L27.54 8.58L27.54 9.41L27.54 9.41Q27.61 9.23 27.83 8.96L27.83 8.96L27.83 8.96Q28.04 8.69 28.41 8.48L28.41 8.48L28.41 8.48Q28.77 8.27 29.25 8.27L29.25 8.27L29.25 8.27Q29.82 8.27 30.37 8.60L30.37 8.60L30.37 8.60Q30.93 8.93 31.28 9.58L31.28 9.58L31.28 9.58Q31.64 10.23 31.64 11.13L31.64 11.13L31.64 11.13Q31.64 12.10 31.22 12.75L31.22 12.75L31.22 12.75Q30.80 13.41 30.19 13.72L30.19 13.72L30.19 13.72Q29.58 14.03 29.02 14.03L29.02 14.03L29.02 14.03Q28.21 14.03 27.54 13.33L27.54 13.33L27.54 15.96L27.54 15.96Q27.54 16.09 27.58 16.13L27.58 16.13L27.58 16.13Q27.62 16.17 27.72 16.17L27.72 16.17L28.32 16.17L28.32 16.17Q28.41 16.17 28.42 16.20L28.42 16.20L28.42 16.20Q28.43 16.23 28.43 16.31L28.43 16.31L28.43 16.31Q28.43 16.46 28.32 16.46L28.32 16.46L25.83 16.46ZM28.98 13.79L28.98 13.79Q29.76 13.79 30.12 13.14L30.12 13.14L30.12 13.14Q30.48 12.49 30.48 11.17L30.48 11.17L30.48 11.17Q30.48 9.86 30.14 9.22L30.14 9.22L30.14 9.22Q29.79 8.58 29.09 8.58L29.09 8.58L29.09 8.58Q28.48 8.58 28.07 9.00L28.07 9.00L28.07 9.00Q27.66 9.41 27.54 10.00L27.54 10.00L27.54 12.81L27.54 12.81Q28.01 13.79 28.98 13.79L28.98 13.79ZM35.46 14.14L35.46 14.14Q34.76 14.14 34.11 13.82L34.11 13.82L34.11 13.82Q33.46 13.50 33.04 12.85L33.04 12.85L33.04 12.85Q32.62 12.19 32.62 11.27L32.62 11.27L32.62 11.27Q32.62 10.36 33.03 9.67L33.03 9.67L33.03 9.67Q33.43 8.99 34.05 8.62L34.05 8.62L34.05 8.62Q34.68 8.25 35.32 8.25L35.32 8.25L35.32 8.25Q36.13 8.25 36.67 8.65L36.67 8.65L36.67 8.65Q37.20 9.04 37.45 9.62L37.45 9.62L37.45 9.62Q37.70 10.19 37.70 10.68L37.70 10.68L37.70 10.68Q37.70 11.02 37.44 11.02L37.44 11.02L34.51 11.02L34.51 11.02Q34.12 11.02 33.95 11.07L33.95 11.07L33.95 11.07Q33.78 11.12 33.78 11.31L33.78 11.31L33.78 11.31Q33.78 12.42 34.19 13.13L34.19 13.13L34.19 13.13Q34.59 13.83 35.69 13.83L35.69 13.83L35.73 13.83L35.73 13.83Q36.19 13.82 36.62 13.57L36.62 13.57L36.62 13.57Q37.04 13.33 37.49 12.67L37.49 12.67L37.49 12.67Q37.53 12.61 37.62 12.61L37.62 12.61L37.62 12.61Q37.69 12.61 37.73 12.66L37.73 12.66L37.73 12.66Q37.77 12.70 37.73 12.78L37.73 12.78L37.73 12.78Q37.67 12.94 37.41 13.26L37.41 13.26L37.41 13.26Q37.14 13.58 36.64 13.86L36.64 13.86L36.64 13.86Q36.15 14.14 35.46 14.14L35.46 14.14ZM33.80 10.67L36.30 10.67L36.30 10.67Q36.51 10.67 36.55 10.63L36.55 10.63L36.55 10.63Q36.58 10.60 36.58 10.42L36.58 10.42L36.58 10.42Q36.58 9.81 36.37 9.16L36.37 9.16L36.37 9.16Q36.15 8.50 35.41 8.50L35.41 8.50L35.41 8.50Q34.82 8.50 34.36 9.04L34.36 9.04L34.36 9.04Q33.89 9.59 33.80 10.67L33.80 10.67ZM42.41 14.01L42.41 14.01Q42.31 14.01 42.25 13.96L42.25 13.96L42.25 13.96Q42.20 13.90 42.20 13.82L42.20 13.82L42.20 13.82Q42.20 13.73 42.25 13.68L42.25 13.68L42.25 13.68Q42.31 13.62 42.41 13.62L42.41 13.62L42.41 13.62Q42.88 13.62 43.23 13.28L43.23 13.28L43.23 13.28Q43.58 12.94 43.58 12.45L43.58 12.45L43.58 5.29L43.58 5.29Q43.58 5.10 43.46 4.96L43.46 4.96L43.46 4.96Q43.33 4.82 43.13 4.82L43.13 4.82L42.41 4.82L42.41 4.82Q42.32 4.82 42.26 4.75L42.26 4.75L42.26 4.75Q42.20 4.69 42.20 4.61L42.20 4.61L42.20 4.61Q42.20 4.52 42.25 4.47L42.25 4.47L42.25 4.47Q42.31 4.41 42.41 4.41L42.41 4.41L45.01 4.41L45.01 4.41Q45.14 4.41 45.18 4.52L45.18 4.52L47.80 11.89L50.33 4.52L50.33 4.52Q50.37 4.41 50.50 4.41L50.50 4.41L52.88 4.41L52.88 4.41Q52.96 4.41 53.01 4.47L53.01 4.47L53.01 4.47Q53.06 4.52 53.06 4.61L53.06 4.61L53.06 4.61Q53.06 4.69 53.01 4.75L53.01 4.75L53.01 4.75Q52.96 4.82 52.88 4.82L52.88 4.82L52.25 4.82L52.25 4.82Q52.09 4.82 51.97 4.93L51.97 4.93L51.97 4.93Q51.84 5.04 51.84 5.19L51.84 5.19L51.84 13.24L51.84 13.24Q51.84 13.38 51.97 13.50L51.97 13.50L51.97 13.50Q52.09 13.62 52.25 13.62L52.25 13.62L52.88 13.62L52.88 13.62Q52.96 13.62 53.01 13.68L53.01 13.68L53.01 13.68Q53.06 13.73 53.06 13.82L53.06 13.82L53.06 13.82Q53.06 13.90 53.01 13.96L53.01 13.96L53.01 13.96Q52.96 14.01 52.88 14.01L52.88 14.01L49.46 14.01L49.46 14.01Q49.39 14.01 49.34 13.96L49.34 13.96L49.34 13.96Q49.29 13.90 49.29 13.82L49.29 13.82L49.29 13.82Q49.29 13.73 49.34 13.68L49.34 13.68L49.34 13.68Q49.39 13.62 49.46 13.62L49.46 13.62L50.09 13.62L50.09 13.62Q50.23 13.62 50.34 13.51L50.34 13.51L50.34 13.51Q50.46 13.40 50.46 13.24L50.46 13.24L50.46 5.33L47.50 13.90L47.50 13.90Q47.46 14.01 47.33 14.01L47.33 14.01L47.28 14.01L47.28 14.01Q47.15 14.01 47.11 13.90L47.11 13.90L43.96 5.11L43.96 12.45L43.96 12.45Q43.96 12.94 44.30 13.28L44.30 13.28L44.30 13.28Q44.65 13.62 45.14 13.62L45.14 13.62L45.14 13.62Q45.22 13.62 45.29 13.68L45.29 13.68L45.29 13.68Q45.36 13.73 45.36 13.82L45.36 13.82L45.36 13.82Q45.36 13.90 45.29 13.96L45.29 13.96L45.29 13.96Q45.22 14.01 45.14 14.01L45.14 14.01L42.41 14.01ZM55.69 14.20L55.69 14.20Q54.89 14.20 54.48 13.75L54.48 13.75L54.48 13.75Q54.07 13.30 54.07 12.67L54.07 12.67L54.07 12.67Q54.07 12.00 54.55 11.56L54.55 11.56L54.55 11.56Q55.03 11.13 55.78 10.93L55.78 10.93L55.78 10.93Q56.49 10.71 57.30 10.71L57.30 10.71L57.50 10.72L57.50 10.46L57.50 10.46Q57.50 9.88 57.43 9.49L57.43 9.49L57.43 9.49Q57.36 9.10 57.08 8.83L57.08 8.83L57.08 8.83Q56.80 8.55 56.22 8.55L56.22 8.55L56.22 8.55Q55.80 8.55 55.68 8.67L55.68 8.67L55.68 8.67Q55.55 8.78 55.55 8.90L55.55 8.90L55.55 8.90Q55.55 8.97 55.62 9.13L55.62 9.13L55.62 9.13Q55.69 9.28 55.69 9.35L55.69 9.35L55.69 9.35Q55.69 9.66 55.52 9.81L55.52 9.81L55.52 9.81Q55.37 10.00 55.09 10.00L55.09 10.00L55.09 10.00Q54.84 10.00 54.64 9.80L54.64 9.80L54.64 9.80Q54.54 9.69 54.50 9.59L54.50 9.59L54.50 9.59Q54.46 9.49 54.46 9.37L54.46 9.37L54.46 9.37Q54.46 9.10 54.64 8.88L54.64 8.88L54.64 8.88Q54.94 8.54 55.42 8.43L55.42 8.43L55.42 8.43Q55.90 8.32 56.34 8.32L56.34 8.32L56.34 8.32Q57.01 8.32 57.46 8.47L57.46 8.47L57.46 8.47Q57.90 8.62 58.17 8.96L58.17 8.96L58.17 8.96Q58.39 9.25 58.44 9.59L58.44 9.59L58.44 9.59Q58.49 9.93 58.49 10.72L58.49 10.72L58.49 12.89L58.49 12.89Q58.49 13.66 58.90 13.66L58.90 13.66L58.90 13.66Q59.12 13.66 59.35 13.44L59.35 13.44L59.35 13.44Q59.37 13.43 59.39 13.41L59.39 13.41L59.39 13.41Q59.40 13.38 59.43 13.38L59.43 13.38L59.43 13.38Q59.51 13.38 59.51 13.48L59.51 13.48L59.51 13.48Q59.51 13.68 59.20 13.91L59.20 13.91L59.20 13.91Q58.88 14.14 58.59 14.14L58.59 14.14L58.59 14.14Q58.23 14.14 57.95 13.87L57.95 13.87L57.95 13.87Q57.68 13.59 57.54 13.19L57.54 13.19L57.54 13.19Q57.50 13.19 57.48 13.17L57.48 13.17L57.48 13.17Q57.46 13.16 57.44 13.19L57.44 13.19L57.44 13.19Q56.84 14.20 55.69 14.20L55.69 14.20ZM56.10 13.71L56.10 13.71Q56.48 13.71 56.80 13.51L56.80 13.51L56.80 13.51Q57.12 13.31 57.31 13.03L57.31 13.03L57.31 13.03Q57.50 12.75 57.50 12.52L57.50 12.52L57.50 10.99L57.50 10.99Q57.09 10.99 56.63 11.05L56.63 11.05L56.63 11.05Q56.17 11.12 55.86 11.27L55.86 11.27L55.86 11.27Q55.38 11.51 55.24 11.91L55.24 11.91L55.24 11.91Q55.09 12.31 55.09 12.63L55.09 12.63L55.09 12.63Q55.09 12.99 55.31 13.35L55.31 13.35L55.31 13.35Q55.54 13.71 56.10 13.71L56.10 13.71ZM61.87 14.20L61.87 14.20Q61.07 14.20 60.66 13.75L60.66 13.75L60.66 13.75Q60.24 13.30 60.24 12.67L60.24 12.67L60.24 12.67Q60.24 12.00 60.72 11.56L60.72 11.56L60.72 11.56Q61.21 11.13 61.95 10.93L61.95 10.93L61.95 10.93Q62.66 10.71 63.48 10.71L63.48 10.71L63.67 10.72L63.67 10.46L63.67 10.46Q63.67 9.88 63.60 9.49L63.60 9.49L63.60 9.49Q63.53 9.10 63.25 8.83L63.25 8.83L63.25 8.83Q62.97 8.55 62.40 8.55L62.40 8.55L62.40 8.55Q61.98 8.55 61.85 8.67L61.85 8.67L61.85 8.67Q61.73 8.78 61.73 8.90L61.73 8.90L61.73 8.90Q61.73 8.97 61.80 9.13L61.80 9.13L61.80 9.13Q61.87 9.28 61.87 9.35L61.87 9.35L61.87 9.35Q61.87 9.66 61.70 9.81L61.70 9.81L61.70 9.81Q61.54 10.00 61.26 10.00L61.26 10.00L61.26 10.00Q61.01 10.00 60.82 9.80L60.82 9.80L60.82 9.80Q60.72 9.69 60.68 9.59L60.68 9.59L60.68 9.59Q60.63 9.49 60.63 9.37L60.63 9.37L60.63 9.37Q60.63 9.10 60.82 8.88L60.82 8.88L60.82 8.88Q61.11 8.54 61.59 8.43L61.59 8.43L61.59 8.43Q62.08 8.32 62.51 8.32L62.51 8.32L62.51 8.32Q63.18 8.32 63.63 8.47L63.63 8.47L63.63 8.47Q64.08 8.62 64.34 8.96L64.34 8.96L64.34 8.96Q64.57 9.25 64.62 9.59L64.62 9.59L64.62 9.59Q64.67 9.93 64.67 10.72L64.67 10.72L64.67 12.89L64.67 12.89Q64.67 13.66 65.07 13.66L65.07 13.66L65.07 13.66Q65.30 13.66 65.52 13.44L65.52 13.44L65.52 13.44Q65.55 13.43 65.56 13.41L65.56 13.41L65.56 13.41Q65.58 13.38 65.60 13.38L65.60 13.38L65.60 13.38Q65.69 13.38 65.69 13.48L65.69 13.48L65.69 13.48Q65.69 13.68 65.37 13.91L65.37 13.91L65.37 13.91Q65.06 14.14 64.76 14.14L64.76 14.14L64.76 14.14Q64.40 14.14 64.13 13.87L64.13 13.87L64.13 13.87Q63.85 13.59 63.71 13.19L63.71 13.19L63.71 13.19Q63.67 13.19 63.65 13.17L63.65 13.17L63.65 13.17Q63.63 13.16 63.62 13.19L63.62 13.19L63.62 13.19Q63.01 14.20 61.87 14.20L61.87 14.20ZM62.27 13.71L62.27 13.71Q62.65 13.71 62.97 13.51L62.97 13.51L62.97 13.51Q63.29 13.31 63.48 13.03L63.48 13.03L63.48 13.03Q63.67 12.75 63.67 12.52L63.67 12.52L63.67 10.99L63.67 10.99Q63.27 10.99 62.80 11.05L62.80 11.05L62.80 11.05Q62.34 11.12 62.03 11.27L62.03 11.27L62.03 11.27Q61.56 11.51 61.41 11.91L61.41 11.91L61.41 11.91Q61.26 12.31 61.26 12.63L61.26 12.63L61.26 12.63Q61.26 12.99 61.49 13.35L61.49 13.35L61.49 13.35Q61.71 13.71 62.27 13.71L62.27 13.71ZM66.64 14.01L66.64 14.01Q66.58 14.01 66.56 13.97L66.56 13.97L66.56 13.97Q66.54 13.93 66.54 13.85L66.54 13.85L66.54 13.85Q66.54 13.78 66.57 13.76L66.57 13.76L66.57 13.76Q66.60 13.73 66.68 13.73L66.68 13.73L66.96 13.73L66.96 13.73Q67.09 13.73 67.15 13.64L67.15 13.64L67.15 13.64Q67.21 13.54 67.21 13.41L67.21 13.41L67.21 9.00L67.21 9.00Q67.21 8.85 67.14 8.77L67.14 8.77L67.14 8.77Q67.07 8.69 66.96 8.69L66.96 8.69L66.54 8.69L66.54 8.69Q66.37 8.69 66.37 8.54L66.37 8.54L66.37 8.54Q66.37 8.36 66.56 8.36L66.56 8.36L68.03 8.36L68.03 8.36Q68.14 8.36 68.19 8.41L68.19 8.41L68.19 8.41Q68.25 8.46 68.25 8.58L68.25 8.58L68.25 9.32L68.25 9.32Q68.25 9.42 68.29 9.46L68.29 9.46L68.29 9.46Q68.32 9.49 68.39 9.39L68.39 9.39L68.39 9.39Q68.42 9.37 68.60 9.06L68.60 9.06L68.60 9.06Q68.78 8.75 69.20 8.50L69.20 8.50L69.20 8.50Q69.62 8.25 70.13 8.25L70.13 8.25L70.13 8.25Q70.74 8.25 71.09 8.56L71.09 8.56L71.09 8.56Q71.43 8.88 71.57 9.35L71.57 9.35L71.57 9.35Q71.61 9.42 71.65 9.44L71.65 9.44L71.65 9.44Q71.69 9.46 71.75 9.39L71.75 9.39L71.75 9.39Q71.76 9.37 71.95 9.07L71.95 9.07L71.95 9.07Q72.13 8.76 72.56 8.51L72.56 8.51L72.56 8.51Q72.98 8.25 73.50 8.25L73.50 8.25L73.50 8.25Q74.28 8.25 74.63 8.76L74.63 8.76L74.63 8.76Q74.98 9.28 74.98 9.87L74.98 9.87L74.98 13.51L74.98 13.51Q74.98 13.64 75.04 13.67L75.04 13.67L75.04 13.67Q75.10 13.71 75.21 13.71L75.21 13.71L75.57 13.71L75.57 13.71Q75.71 13.71 75.71 13.85L75.71 13.85L75.71 13.85Q75.71 14.01 75.57 14.01L75.57 14.01L73.42 14.01L73.42 14.01Q73.29 14.01 73.29 13.85L73.29 13.85L73.29 13.85Q73.29 13.78 73.33 13.76L73.33 13.76L73.33 13.76Q73.36 13.73 73.44 13.73L73.44 13.73L73.72 13.73L73.72 13.73Q73.99 13.73 73.99 13.51L73.99 13.51L73.99 9.91L73.99 9.91Q73.99 9.44 73.72 9.14L73.72 9.14L73.72 9.14Q73.44 8.83 73.05 8.83L73.05 8.83L73.05 8.83Q72.74 8.83 72.43 9.02L72.43 9.02L72.43 9.02Q72.11 9.21 71.88 9.67L71.88 9.67L71.88 9.67Q71.65 10.14 71.65 10.91L71.65 10.91L71.65 13.51L71.65 13.51Q71.65 13.64 71.69 13.67L71.69 13.67L71.69 13.67Q71.72 13.71 71.82 13.71L71.82 13.71L72.27 13.71L72.27 13.71Q72.32 13.71 72.37 13.74L72.37 13.74L72.37 13.74Q72.41 13.78 72.41 13.85L72.41 13.85L72.41 13.85Q72.41 14.01 72.27 14.01L72.27 14.01L70.03 14.01L70.03 14.01Q69.97 14.01 69.96 13.97L69.96 13.97L69.96 13.97Q69.94 13.92 69.94 13.85L69.94 13.85L69.94 13.85Q69.94 13.76 69.96 13.75L69.96 13.75L69.96 13.75Q69.97 13.73 70.06 13.73L70.06 13.73L70.38 13.73L70.38 13.73Q70.52 13.73 70.57 13.68L70.57 13.68L70.57 13.68Q70.62 13.62 70.62 13.51L70.62 13.51L70.62 9.91L70.62 9.91Q70.62 9.44 70.35 9.14L70.35 9.14L70.35 9.14Q70.08 8.83 69.68 8.83L69.68 8.83L69.68 8.83Q69.37 8.83 69.05 9.02L69.05 9.02L69.05 9.02Q68.73 9.21 68.49 9.67L68.49 9.67L68.49 9.67Q68.25 10.14 68.25 10.91L68.25 10.91L68.25 13.51L68.25 13.51Q68.25 13.64 68.29 13.67L68.29 13.67L68.29 13.67Q68.33 13.71 68.43 13.71L68.43 13.71L68.87 13.71L68.87 13.71Q68.99 13.71 68.99 13.85L68.99 13.85L68.99 13.85Q68.99 14.01 68.85 14.01L68.85 14.01L66.64 14.01Z"></path></g><!----><g data-v-423bf9ae="" id="1a2f00b3-94a4-4ed3-b236-dbc68d581c8b" transform="matrix(2.8125,0,0,2.8125,0,0)" stroke="none" fill="black"><circle cx="16" cy="16.021" r="8.066"></circle><path d="M32 0H0v32h32V0zM16 26.086c-5.551 0-10.066-4.516-10.066-10.065 0-5.55 4.516-10.066 10.066-10.066 5.55 0 10.065 4.516 10.065 10.066.001 5.55-4.515 10.065-10.065 10.065z"></path></g><!----></svg>